<svg xmlns="http://www.w3.org/2000/svg" viewBox="0 0 50 50" enable-background="new 0 0 50 50"><g fill="#fff"><path d="M32.2 16.1c-.9 0-1.6.7-1.6 1.6 0 .9.7 1.6 1.6 1.6.9 0 1.6-.8 1.6-1.6 0-.9-.7-1.6-1.6-1.6zM25 17.9c-3.9 0-7 3.1-7 7s3.1 7 7 7 7-3.1 7-7-3.1-7-7-7zm0 11.5c-2.4 0-4.5-2-4.5-4.5 0-2.4 2-4.5 4.5-4.5 2.4 0 4.5 2 4.5 4.5 0 2.4-2 4.5-4.5 4.5zM45 0h-40c-2.7 0-5 2.2-5 5v40c0 2.8 2.3 5 5 5h40c2.7 0 5-2.2 5-5v-40c0-2.8-2.3-5-5-5zm-6.4 30.8c0 4.3-3.5 7.8-7.8 7.8h-11.6c-4.3 0-7.8-3.5-7.8-7.8v-11.6c0-4.3 3.5-7.8 7.8-7.8h11.6c4.2 0 7.7 3.5 7.8 7.8v11.6z"/></g></svg>