<svg width="437" height="85" viewBox="0 0 437 85" xmlns="http://www.w3.org/2000/svg"><title>GOBIKE</title><desc>Created with Sketch.</desc><path d="M43.508 84.573c14.641 0 26.136-6.05 34.364-15.246v-30.976h-38.478v15.004h21.296v9.68c-3.267 3.025-10.043 6.171-17.182 6.171-14.641 0-25.289-11.253-25.289-26.499 0-15.246 10.648-26.499 25.289-26.499 8.591 0 15.488 4.84 19.118 10.527l14.278-7.744c-6.05-9.559-16.577-18.029-33.396-18.029-23.595 0-42.955 16.214-42.955 41.745 0 25.41 19.36 41.866 42.955 41.866zm87.273-.121c-24.321 0-42.108-17.424-42.108-41.745 0-24.321 17.787-41.745 42.108-41.745 24.442 0 42.229 17.424 42.229 41.745 0 24.321-17.787 41.745-42.229 41.745zm0-15.246c14.883 0 24.563-11.495 24.563-26.499 0-15.125-9.68-26.499-24.563-26.499s-24.442 11.374-24.442 26.499c0 15.004 9.559 26.499 24.442 26.499zm99.131 13.794h-43.802v-80.707h42.471c15.367 0 23.232 9.801 23.232 20.57 0 10.164-6.292 16.94-13.915 18.513 8.591 1.331 15.488 9.68 15.488 19.844 0 12.1-8.107 21.78-23.474 21.78zm-5.082-48.4c5.808 0 9.438-3.63 9.438-8.712s-3.63-8.833-9.438-8.833h-21.538v17.545h21.538zm.605 33.517c6.534 0 10.406-3.509 10.406-9.317 0-5.082-3.63-9.438-10.406-9.438h-22.143v18.755h22.143zm59.08 14.883v-80.707h-17.182v80.707h17.182zm86.063 0l-34.243-42.834 32.065-37.873h-21.175l-28.556 36.058v-36.058h-17.182v80.707h17.182v-24.805l6.292-7.502 24.442 32.307h21.175zm65.977 0v-15.125h-39.93v-18.271h39.083v-15.125h-39.083v-17.061h39.93v-15.125h-57.112v80.707h57.112z" fill="#fff"/></svg>