<svg width="50" height="50" viewBox="0 0 50 50" xmlns="http://www.w3.org/2000/svg"><title>Combined Shape</title><desc>Created with Sketch.</desc><path d="M45 0c2.8 0 5 2.2 5 5v40c0 2.8-2.2 5-5 5h-40c-2.8 0-5-2.2-5-5v-40c0-2.8 2.2-5 5-5h40zm-4.734 16.287c.222-.742 0-1.287-1.059-1.287h-3.501c-.89 0-1.301.471-1.523.99 0 0-1.78 4.34-4.302 7.158-.816.816-1.187 1.076-1.632 1.076-.223 0-.545-.26-.545-1.001v-6.936c0-.89-.258-1.287-1-1.287h-5.501c-.556 0-.891.413-.891.805 0 .844 1.261 1.038 1.391 3.412v5.155c0 1.13-.204 1.335-.649 1.335-1.187 0-4.074-4.359-5.786-9.346-.336-.969-.672-1.361-1.567-1.361h-3.501c-1 0-1.2.471-1.2.99 0 .927 1.187 5.526 5.526 11.609 2.893 4.154 6.969 6.405 10.678 6.405 2.225 0 2.501-.5 2.501-1.362v-3.139c0-1 .211-1.2.915-1.2.519 0 1.409.26 3.486 2.262 2.374 2.374 2.765 3.439 4.1 3.439h3.501c1 0 1.5-.5 1.212-1.487-.316-.984-1.449-2.411-2.953-4.102-.816-.964-2.04-2.003-2.411-2.522-.519-.668-.371-.964 0-1.558 0 0 4.265-6.008 4.71-8.048z" fill-rule="nonzero" fill="#fff"/></svg>