<svg xmlns="http://www.w3.org/2000/svg" viewBox="0 0 50 50" enable-background="new 0 0 50 50"><g fill="#fff"><path d="M28.8 28.7c-.6 0-1.1.3-1.7 1v-3.8h-1.6v11.9h1.6v-.9c.6.6 1.1 1 1.7 1 .6 0 1-.3 1.3-1 .2-.4.2-1 .2-1.9v-3.5c0-.9-.1-1.4-.2-1.8-.3-.7-.7-1-1.3-1zm-.1 6.3c0 .8-.2 1.2-.7 1.2-.2 0-.6-.2-.8-.4v-5.4c.2-.2.6-.4.8-.4.5 0 .7.4.7 1.2v3.8zM45 0h-40c-2.8 0-5 2.2-5 5v40c0 2.8 2.2 5 5 5h40c2.8 0 5-2.2 5-5v-40c0-2.8-2.2-5-5-5zm-16.6 12.1h1.6v7.199999999999999c0 .2.2.4.4.4.3 0 .6-.2 1-.8v-6.8h1.6v8.9h-1.6v-1c-.6.7-1.3 1.1-1.8 1.1-.6 0-.9-.2-1-.6-.1-.3-.2-.7-.2-1.4v-7zm-6 2.8c0-1 .2-1.7.5-2.1.5-.6 1-.9 1.8-.9s1.4.3 1.9.9c.2.4.5 1.1.5 2.1v3.1c0 1-.2 1.7-.5 2.1-.5.6-1 .9-1.9.9-.8 0-1.4-.3-1.8-.9-.3-.5-.5-1.1-.5-2.1v-3.1zm-4.5-5.9l1.3 4.7 1.2-4.7h1.8l-2.2 7.1v4.8h-1.8v-4.8c-.2-.9-.6-2.2-1.1-3.8-.4-1.2-.7-2.3-1.1-3.3h1.9zm20 29c-.2.7-.5 1.3-1 1.8s-1.1.7-1.8.8c-2.2.2-5.5.4-10 .4s-7.7-.2-10-.4c-.7-.1-1.3-.3-1.8-.8-.6-.5-.9-1-1-1.8-.3-1.4-.5-3.4-.5-6.2 0-2.8.2-4.9.5-6.2.2-.7.5-1.3 1-1.8.6-.5 1.1-.7 1.8-.8 2.2-.2 5.4-.3 10-.3 4.4 0 7.7.1 10 .3.7.1 1.3.4 1.8.8.6.5.9 1 1 1.8.3 1.4.5 3.4.5 6.2-.1 2.8-.2 4.9-.5 6.2zM13.7 27.4h1.8v10.2h1.8l.1-10.2h1.9v-1.7h-5.6zM22.6 35.5c-.3.5-.7.7-1 .7-.2 0-.3-.2-.4-.4v-7.1h-1.6v7c0 .6.1 1 .2 1.3.2.5.5.6 1 .6.6 0 1.2-.4 1.8-1.1v1.1h1.6v-8.9h-1.6v6.8zM34 28.7c-.8 0-1.4.3-1.9.9-.3.5-.5 1.1-.5 2.1v3.1c0 1 .2 1.6.5 2.1.5.6 1.1.9 1.9.9.9 0 1.5-.3 1.9-1 .2-.3.3-.6.4-1v-1.3h-1.6v1.1c-.1.4-.3.6-.7.6-.6 0-.8-.4-.8-1.2v-1.5h3.2v-1.8c0-1-.2-1.6-.5-2.1-.5-.7-1.1-.9-1.9-.9zm.7 3.3h-1.6v-.8c0-.8.2-1.2.8-1.2.6 0 .8.4.8 1.2v.8zM24.6 19.7c.6-.1.8-.5.8-1.3v-3.8c0-.8-.2-1.2-.8-1.2-.5 0-.8.4-.8 1.2v3.8c0 .8.2 1.3.8 1.3z"/></g></svg>