<svg xmlns="http://www.w3.org/2000/svg" viewBox="0 0 50 50" enable-background="new 0 0 50 50"><path fill="#fff" d="M45 0h-40c-2.8 0-5 2.2-5 5v40c0 2.8 2.2 5 5 5h40c2.8 0 5-2.2 5-5v-40c0-2.8-2.2-5-5-5zm-7.9 20.2c-.1 10.2-6.6 17.1-16.3 17.6-4 .2-6.9-1.1-9.4-2.7 3 .5 6.6-.7 8.6-2.4-2.9-.3-4.6-1.7-5.4-4.1.8.1 1.7.1 2.5-.1-2.6-.9-4.5-2.5-4.6-5.9.7.4 1.5.6 2.5.7-2-1.1-3.4-5.2-1.8-7.9 2.9 3.2 6.4 5.8 12.1 6.1-1.4-6.1 6.7-9.5 10.1-5.4 1.4-.3 2.6-.8 3.7-1.4-.5 1.4-1.4 2.4-2.4 3.2 1.2-.2 2.2-.4 3.2-.9-.5 1.2-1.7 2.3-2.8 3.2z"/></svg>